<svg width="1440" height="479" viewBox="0 0 1440 479" fill="none" xmlns="http://www.w3.org/2000/svg">
    <path
        d="M0 234.48L30 229.418C60 223.973 120 214.422 180 224.26C240 234.48 300 265.045 360 295.61C420 326.175 480 356.74 540 377.085C600 397.812 660 407.363 720 402.587C780 397.812 840 376.798 900 341.457C960 306.117 1020 254.538 1080 234.48C1140 214.422 1200 223.973 1260 254.825C1320 285.103 1380 336.682 1410 363.14L1440 387.305V479H1410C1380 479 1320 479 1260 479C1200 479 1140 479 1080 479C1020 479 960 479 900 479C840 479 780 479 720 479C660 479 600 479 540 479C480 479 420 479 360 479C300 479 240 479 180 479C120 479 60 479 30 479H0V234.48Z"
        fill="#d9d9d9" />
</svg>